<?xml version="1.0"?>
<svg width="24" height="24" xmlns="http://www.w3.org/2000/svg" xmlns:svg="http://www.w3.org/2000/svg">
 <defs>
  <linearGradient id="svg_4" x1="0.5" x2="0.5" y1="0" y2="1">
   <stop stop-color="#00d2fc" stop-opacity="1"/>
   <stop offset="1" stop-color="#00596b" stop-opacity="1"/>
  </linearGradient>
 </defs>
 <g class="layer">
  <title>Layer 1</title>
  <path d="m19,7l-0.82,0l-1.7,-4.68c-0.14,-0.39 -0.4,-0.72 -0.73,-0.96c-0.34,-0.23 -0.74,-0.36 -1.15,-0.36l-1.6,0c-0.55,0 -1,0.45 -1,1c0,0.55 0.45,1 1,1l1.6,0l1.46,4l-4.81,0l-0.36,-1l0.09,0c0.55,0 1,-0.45 1,-1c0,-0.55 -0.45,-1 -1,-1l-2.98,0c-0.55,0 -1,0.45 -1,1c0,0.55 0.45,1 1,1l0.75,0l1.82,5l-0.67,0c-0.44,-2.23 -2.31,-3.88 -4.65,-3.99c-2.8,-0.14 -5.25,2.19 -5.25,4.99c0,2.8 2.2,5 5,5c2.46,0 4.45,-1.69 4.9,-4l4.2,0c0.44,2.23 2.31,3.88 4.65,3.99c2.8,0.13 5.25,-2.19 5.25,-5c0,-2.79 -2.2,-4.99 -5,-4.99zm-13,6l1.82,0c-0.42,1.23 -1.6,2.08 -3.02,1.99c-1.49,-0.09 -2.73,-1.35 -2.8,-2.85c-0.07,-1.75 1.27,-3.14 3,-3.14c1.33,0 2.42,0.83 2.82,2l-1.82,0c-0.55,0 -1,0.45 -1,1c0,0.55 0.45,1 1,1zm8.1,-2l-1.4,0l-0.73,-2l3.03,0c-0.44,0.58 -0.76,1.25 -0.9,2zm4.78,4c-1.54,-0.06 -2.84,-1.37 -2.88,-2.92c-0.02,-0.96 0.39,-1.8 1.05,-2.36l0.62,1.7c0.19,0.52 0.76,0.79 1.28,0.6c0.52,-0.19 0.79,-0.76 0.6,-1.28l-0.63,-1.73l0.01,-0.01c0.4,-0.01 0.8,0.05 1.17,0.2c0.38,0.14 0.72,0.36 1.01,0.64c0.28,0.28 0.51,0.62 0.66,0.99c0.16,0.37 0.23,0.77 0.23,1.17c0,1.72 -1.38,3.06 -3.12,3zm-7.88,5l-4,0l6,3l0,-2l4,0l-6,-3l0,2z" fill="url(#svg_4)" id="svg_1"/>
 </g>
</svg>