<?xml version="1.0"?>
<svg width="24" height="24" xmlns="http://www.w3.org/2000/svg" xmlns:svg="http://www.w3.org/2000/svg">
 <defs>
  <linearGradient id="svg_3" x1="0.5" x2="0.5" y1="0" y2="1">
   <stop stop-color="#00d4ff" stop-opacity="1"/>
   <stop offset="1" stop-color="#00596b" stop-opacity="1"/>
  </linearGradient>
 </defs>
 <g class="layer">
  <title>Layer 1</title>
  <path d="m12,8c-2.21,0 -4,1.79 -4,4c0,2.21 1.79,4 4,4c2.21,0 4,-1.79 4,-4c0,-2.21 -1.79,-4 -4,-4zm8.94,3c-0.23,-2.03 -1.14,-3.92 -2.58,-5.36c-1.44,-1.44 -3.33,-2.35 -5.36,-2.58l0,-1.06c0,-0.55 -0.45,-1 -1,-1c-0.55,0 -1,0.45 -1,1l0,1.06c-2.03,0.23 -3.92,1.14 -5.36,2.58c-1.44,1.44 -2.35,3.33 -2.58,5.36l-1.06,0c-0.55,0 -1,0.45 -1,1c0,0.55 0.45,1 1,1l1.06,0c0.23,2.03 1.14,3.92 2.58,5.36c1.44,1.44 3.33,2.35 5.36,2.58l0,1.06c0,0.55 0.45,1 1,1c0.55,0 1,-0.45 1,-1l0,-1.06c2.03,-0.23 3.92,-1.14 5.36,-2.58c1.44,-1.44 2.35,-3.33 2.58,-5.36l1.06,0c0.55,0 1,-0.45 1,-1c0,-0.55 -0.45,-1 -1,-1l-1.06,0l0,0zm-8.94,8c-3.87,0 -7,-3.13 -7,-7c0,-3.87 3.13,-7 7,-7c3.87,0 7,3.13 7,7c0,3.87 -3.13,7 -7,7z" fill="url(#svg_3)" id="svg_1"/>
 </g>
</svg>