<?xml version="1.0"?>
<svg width="24" height="24" xmlns="http://www.w3.org/2000/svg" xmlns:svg="http://www.w3.org/2000/svg">
 <defs>
  <linearGradient id="svg_4" x1="0.5" x2="0.5" y1="0" y2="1">
   <stop stop-color="#00d4ff" stop-opacity="1"/>
   <stop offset="1" stop-color="#00596b" stop-opacity="0.99"/>
  </linearGradient>
  <linearGradient id="svg_6" x1="0.5" x2="0.5" y1="0" y2="1">
   <stop stop-color="#00d4ff" stop-opacity="1"/>
   <stop offset="1" stop-color="#00596b" stop-opacity="1"/>
  </linearGradient>
 </defs>
 <g class="layer">
  <title>Layer 1</title>
  <path d="m19.46,10c-0.1,0.15 -0.16,0.31 -0.17,0.49c-0.01,0.18 0.02,0.35 0.1,0.51c0.25,0.58 0.42,1.19 0.52,1.81c0.26,1.61 0.02,3.26 -0.69,4.73c-0.09,0.16 -0.21,0.3 -0.37,0.39c-0.16,0.09 -0.34,0.14 -0.52,0.14l-12.65,0c-0.18,0 -0.36,-0.05 -0.52,-0.15c-0.16,-0.09 -0.29,-0.23 -0.37,-0.39c-0.64,-1.3 -0.92,-2.75 -0.8,-4.19c0.12,-1.44 0.63,-2.83 1.47,-4c0.84,-1.18 1.99,-2.11 3.32,-2.68c1.32,-0.58 2.78,-0.79 4.22,-0.6c0.73,0.09 1.44,0.27 2.11,0.56c0.16,0.08 0.33,0.11 0.51,0.1c0.17,-0.01 0.34,-0.07 0.49,-0.17c0.15,-0.1 0.27,-0.24 0.35,-0.4c0.08,-0.17 0.11,-0.35 0.1,-0.53c-0.02,-0.18 -0.09,-0.36 -0.2,-0.5c-0.11,-0.15 -0.25,-0.26 -0.42,-0.33c-1.93,-0.83 -4.08,-1.03 -6.13,-0.57c-2.05,0.46 -3.9,1.56 -5.3,3.13c-1.39,1.57 -2.25,3.54 -2.46,5.64c-0.21,2.09 0.24,4.19 1.3,6.01c0.17,0.3 0.43,0.55 0.73,0.73c0.3,0.17 0.64,0.27 0.99,0.27l13.85,0c0.35,0 0.7,-0.09 1,-0.27c0.31,-0.17 0.56,-0.42 0.74,-0.73c0.77,-1.34 1.22,-2.84 1.32,-4.38c0.09,-1.54 -0.17,-3.09 -0.77,-4.51c-0.08,-0.16 -0.19,-0.3 -0.34,-0.4c-0.15,-0.1 -0.32,-0.16 -0.5,-0.17c-0.18,-0.01 -0.36,0.02 -0.52,0.1c-0.16,0.09 -0.29,0.21 -0.39,0.36z" fill="url(#svg_4)" id="svg_1" transform="matrix(1 0 0 1 0 0)"/>
  <path d="m10.59,12.59c-0.38,0.38 -0.59,0.88 -0.59,1.42c0,0.26 0.06,0.52 0.16,0.76c0.1,0.24 0.24,0.46 0.43,0.65c0.19,0.19 0.41,0.33 0.65,0.43c0.24,0.1 0.5,0.16 0.77,0.16c0.53,0 1.03,-0.21 1.41,-0.59l5.66,-8.49l-8.49,5.66l0,0z" fill="url(#svg_6)" id="svg_2"/>
 </g>
</svg>